<?xml version="1.0" encoding="utf-8"?>
<svg version="1.1" id="Layer_1" xmlns="http://www.w3.org/2000/svg" xmlns:xlink="http://www.w3.org/1999/xlink" x="0px" y="0px"
	 viewBox="0 0 1920 1080" enable-background="new 0 0 1920 1080" xml:space="preserve">
<polygon fill="none" stroke="#FFFFFF" stroke-width="36" stroke-miterlimit="10" points="719.522,722.001 614.443,540 
	719.522,357.999 929.679,357.999 1034.757,540 929.679,722.001 "/>
<polyline fill="none" stroke="#FFFFFF" stroke-width="18" stroke-miterlimit="10" points="813.21,553.303 836.072,530.44 
	862.817,536.672 842.547,494.717 891.573,518.287 849.017,456.004 908.07,488.249 885.916,445.69 912.965,453.547 936.536,429.977 
	"/>
<polygon fill="none" stroke="#FFFFFF" stroke-width="4" stroke-miterlimit="10" points="705.106,746.028 585.612,540 
	705.106,333.972 944.094,333.972 1063.589,540 944.094,746.028 "/>
<rect x="722.334" y="589.067" transform="matrix(0.7071 -0.7071 0.7071 0.7071 -226.8106 708.4871)" fill="none" stroke="#FFFFFF" stroke-width="18" stroke-miterlimit="10" width="38.961" height="77.922"/>
<polygon fill="none" stroke="#FFFFFF" stroke-width="18" stroke-miterlimit="10" points="754.466,589.452 757.359,520.293 
	849.834,612.198 779.472,614.458 "/>
<path fill="none" stroke="#FFFFFF" stroke-width="18" stroke-miterlimit="10" d="M1476.333,716.333"/>
</svg>
