<?xml version="1.0" encoding="utf-8"?>
<!-- Generator: Adobe Illustrator 19.2.0, SVG Export Plug-In . SVG Version: 6.00 Build 0)  -->
<svg version="1.1" id="Layer_1" xmlns="http://www.w3.org/2000/svg" xmlns:xlink="http://www.w3.org/1999/xlink" x="0px" y="0px"
	 viewBox="0 0 500 500" style="enable-background:new 0 0 500 500;" xml:space="preserve">
<g>
	<path d="M368.8,456.9h-239l-119.5-207l119.5-207h239l119.5,207L368.8,456.9z M158.7,406.9H340l90.6-157L340,92.9H158.7L68,249.9
		L158.7,406.9z"/>
</g>
<path d="M190.7,380.1l-67.8-67.8l40.3-40.3l67.8,67.8L190.7,380.1z M148.3,312.2l42.4,42.4l14.8-14.8l-42.4-42.4L148.3,312.2z"/>
<path d="M199.6,332.6l-28.6-29v-93.5l123.7,122.5H199.6z M188.1,295.7l18.7,18.7h45.6l-63.9-63.9L188.1,295.7z"/>
<polygon points="244,271.4 231.4,258.5 240,250.2 236.1,222.4 262.5,231.1 242.7,181.3 277.5,205.1 248,158.7 305,189.3 
	291.2,156.6 325.2,164.7 345.2,144.7 358,157.4 330.8,184.5 321.5,182.3 341.3,229.3 300.2,207.2 339.5,269.2 281.1,229.3 
	293.4,260.4 257.9,248.6 259,256.7 "/>
</svg>
